<svg xmlns="http://www.w3.org/2000/svg" width="256" height="256" viewBox="0 0 100 100"><rect width="100" height="100" rx="50" fill="#83fe00"></rect><path fill="#fff" d="M30.77 50.86L30.77 50.86Q30.66 50.94 30.47 51.00Q30.29 51.06 30.06 51.06L30.06 51.06Q29.81 51.06 29.61 50.98Q29.41 50.90 29.33 50.73L29.33 50.73Q28.46 48.94 27.84 47.45Q27.22 45.96 26.83 44.98L26.83 44.98L26.77 44.98Q26.72 46.18 26.66 47.22Q26.61 48.25 26.54 49.23Q26.48 50.22 26.42 51.22Q26.35 52.23 26.29 53.38L26.29 53.38Q26.19 53.42 26.04 53.45Q25.89 53.48 25.71 53.48L25.71 53.48Q25.36 53.48 25.22 53.34Q25.07 53.19 25.07 52.92L25.07 52.92Q25.07 52.76 25.10 52.23Q25.12 51.70 25.17 50.95Q25.22 50.20 25.27 49.29Q25.33 48.38 25.40 47.43Q25.47 46.49 25.54 45.58Q25.62 44.66 25.68 43.91L25.68 43.91Q25.81 43.80 26.05 43.70Q26.29 43.61 26.59 43.61L26.59 43.61Q27.33 43.61 27.62 44.20L27.62 44.20Q27.92 44.82 28.23 45.52Q28.54 46.22 28.86 46.94Q29.17 47.66 29.46 48.36Q29.76 49.06 30.03 49.70L30.03 49.70L30.10 49.70Q30.45 48.86 30.80 48.03Q31.15 47.21 31.49 46.44Q31.82 45.67 32.13 45.00Q32.43 44.33 32.67 43.77L32.67 43.77Q32.82 43.69 33.04 43.65Q33.26 43.61 33.46 43.61L33.46 43.61Q34.21 43.61 34.32 44.12L34.32 44.12Q34.38 44.41 34.46 45.07Q34.54 45.74 34.62 46.60Q34.70 47.46 34.78 48.46Q34.85 49.45 34.91 50.37Q34.98 51.29 35.02 52.06Q35.07 52.84 35.10 53.29L35.10 53.29Q34.82 53.48 34.43 53.48L34.43 53.48Q34.19 53.48 34.01 53.36Q33.82 53.24 33.79 52.92L33.79 52.92Q33.71 51.75 33.65 50.60Q33.58 49.45 33.53 48.41Q33.47 47.37 33.42 46.50Q33.38 45.62 33.34 45.02L33.34 45.02L33.28 45.02Q33.10 45.46 32.87 46.02Q32.64 46.58 32.33 47.29Q32.02 47.99 31.63 48.88Q31.25 49.77 30.77 50.86ZM38.99 51.74L38.99 51.74Q38.78 51.35 38.51 50.76Q38.24 50.17 37.94 49.43Q37.65 48.70 37.34 47.87Q37.04 47.05 36.77 46.20L36.77 46.20Q36.88 46.04 37.06 45.94Q37.25 45.85 37.46 45.85L37.46 45.85Q37.73 45.85 37.90 45.99Q38.06 46.14 38.19 46.47L38.19 46.47Q38.67 47.83 39.19 49.14Q39.71 50.46 40.37 51.90L40.37 51.90L40.43 51.90Q40.69 51.40 40.96 50.69Q41.23 49.98 41.50 49.18Q41.76 48.38 41.99 47.55Q42.22 46.73 42.40 45.98L42.40 45.98Q42.51 45.93 42.64 45.89Q42.77 45.85 42.94 45.85L42.94 45.85Q43.22 45.85 43.39 45.98Q43.57 46.12 43.57 46.39L43.57 46.39Q43.57 46.71 43.34 47.56Q43.12 48.41 42.76 49.46Q42.40 50.52 41.94 51.63Q41.47 52.74 40.99 53.61L40.99 53.61Q40.24 54.97 39.64 55.70Q39.04 56.42 38.53 56.42L38.53 56.42Q38.16 56.42 37.96 56.23Q37.76 56.04 37.71 55.78L37.71 55.78Q37.97 55.56 38.29 55.21Q38.61 54.86 38.93 54.45Q39.25 54.04 39.54 53.61Q39.82 53.18 40.02 52.78L40.02 52.78Q39.74 52.70 39.51 52.50Q39.28 52.30 38.99 51.74ZM50.93 52.97L46.85 48.74L46.85 53.37Q46.75 53.40 46.59 53.44Q46.43 53.48 46.24 53.48L46.24 53.48Q45.54 53.48 45.54 52.89L45.54 52.89L45.54 43.69Q45.62 43.66 45.78 43.62Q45.95 43.58 46.14 43.58L46.14 43.58Q46.85 43.58 46.85 44.17L46.85 44.17L46.85 48.15L51.25 43.59Q51.66 43.61 51.87 43.80Q52.08 43.99 52.08 44.25L52.08 44.25Q52.08 44.46 51.97 44.63Q51.86 44.81 51.65 45.02L51.65 45.02L48.19 48.41Q49.65 49.83 50.71 50.94Q51.78 52.06 52.54 52.74L52.54 52.74Q52.51 53.10 52.33 53.30Q52.14 53.50 51.86 53.50L51.86 53.50Q51.58 53.50 51.37 53.34Q51.15 53.19 50.93 52.97L50.93 52.97ZM54.37 50.68L54.37 46.02Q54.45 45.99 54.62 45.95Q54.78 45.91 54.98 45.91L54.98 45.91Q55.65 45.91 55.65 46.50L55.65 46.50L55.65 50.62Q55.65 51.66 56.19 52.10Q56.74 52.54 57.70 52.54L57.70 52.54Q58.34 52.54 58.78 52.40Q59.23 52.26 59.49 52.12L59.49 52.12L59.49 46.02Q59.57 45.99 59.74 45.95Q59.90 45.91 60.08 45.91L60.08 45.91Q60.77 45.91 60.77 46.50L60.77 46.50L60.77 52.07Q60.77 52.41 60.68 52.61Q60.59 52.81 60.26 53.00L60.26 53.00Q59.89 53.21 59.24 53.40Q58.59 53.59 57.68 53.59L57.68 53.59Q56.08 53.59 55.22 52.89Q54.37 52.18 54.37 50.68L54.37 50.68ZM64.45 47.37L64.45 53.35Q64.37 53.38 64.21 53.42Q64.05 53.46 63.86 53.46L63.86 53.46Q63.17 53.46 63.17 52.89L63.17 52.89L63.17 47.46Q63.17 47.10 63.30 46.88Q63.44 46.66 63.76 46.46L63.76 46.46Q64.18 46.18 64.89 45.98Q65.60 45.78 66.50 45.78L66.50 45.78Q67.78 45.78 67.78 46.42L67.78 46.42Q67.78 46.58 67.73 46.72Q67.68 46.86 67.60 46.95L67.60 46.95Q67.44 46.92 67.18 46.89Q66.93 46.86 66.67 46.86L66.67 46.86Q65.94 46.86 65.38 47.01Q64.82 47.16 64.45 47.37L64.45 47.37ZM71.92 52.55L71.92 52.55Q72.59 52.55 73.03 52.42Q73.47 52.28 73.66 52.15L73.66 52.15L73.66 49.83L71.68 50.04Q70.85 50.12 70.45 50.42Q70.05 50.71 70.05 51.29L70.05 51.29Q70.05 51.90 70.51 52.22Q70.98 52.55 71.92 52.55ZM71.90 45.78L71.90 45.78Q73.30 45.78 74.11 46.41Q74.93 47.03 74.93 48.38L74.93 48.38L74.93 52.17Q74.93 52.52 74.79 52.70Q74.66 52.89 74.38 53.05L74.38 53.05Q74.00 53.27 73.37 53.44Q72.74 53.61 71.92 53.61L71.92 53.61Q70.42 53.61 69.59 53.02Q68.77 52.42 68.77 51.30L68.77 51.30Q68.77 50.25 69.46 49.71Q70.14 49.18 71.39 49.05L71.39 49.05L73.66 48.82L73.66 48.38Q73.66 47.58 73.18 47.21Q72.70 46.84 71.89 46.84L71.89 46.84Q71.22 46.84 70.62 47.03Q70.03 47.22 69.57 47.46L69.57 47.46Q69.44 47.35 69.34 47.21Q69.23 47.06 69.23 46.89L69.23 46.89Q69.23 46.66 69.34 46.52Q69.46 46.38 69.70 46.25L69.70 46.25Q70.13 46.02 70.69 45.90Q71.25 45.78 71.90 45.78Z"></path></svg>